<?xml version="1.0" standalone="no"?>
<!DOCTYPE svg PUBLIC "-//W3C//DTD SVG 20010904//EN"
 "http://www.w3.org/TR/2001/REC-SVG-20010904/DTD/svg10.dtd">
<svg version="1.0" xmlns="http://www.w3.org/2000/svg"
 width="1280.000000pt" height="698.000000pt" viewBox="0 0 1280.000000 698.000000"
 preserveAspectRatio="xMidYMid meet">
<metadata>
Created by potrace 1.14, written by Peter Selinger 2001-2017
</metadata>
<g transform="translate(0.000000,698.000000) scale(0.100000,-0.100000)"
fill="#000000" stroke="none">
<path d="M440 3490 l0 -3050 5380 0 5380 0 0 145 0 145 -1745 0 -1745 0 0 435
0 435 580 0 580 0 0 580 0 580 583 2 582 3 3 1163 2 1162 580 0 580 0 0 145 0
145 -1310 0 -1310 0 0 -725 0 -725 145 0 145 0 0 580 0 580 440 0 440 0 -2
-1017 -3 -1018 -1017 -3 -1018 -2 0 585 0 585 -580 0 -580 0 0 580 0 580 -730
0 -730 0 0 -145 0 -145 580 0 580 0 0 -580 0 -580 585 0 585 0 0 -585 0 -585
580 0 580 0 0 -435 0 -435 -1015 0 -1015 0 0 580 0 580 -150 0 -150 0 0 -725
0 -725 585 0 585 0 0 -435 0 -435 -1020 0 -1020 0 0 580 0 580 -145 0 -145 0
0 -580 0 -580 -2180 0 -2180 0 0 1015 0 1015 580 0 580 0 0 145 0 145 -580 0
-580 0 0 1745 0 1745 -145 0 -145 0 0 -3050z"/>
<path d="M1050 6370 l0 -170 -115 0 c-63 0 -115 -3 -115 -8 0 -4 77 -84 170
-177 l170 -170 178 178 177 177 -118 0 -117 0 0 170 0 170 -115 0 -115 0 0
-170z"/>
<path d="M1600 6395 l0 -145 1165 0 1165 0 0 -1015 0 -1015 -1020 0 -1020 0 0
435 0 435 580 0 580 0 0 145 0 145 -725 0 -725 0 0 -725 0 -725 580 0 580 0 2
-582 3 -583 142 -3 143 -3 2 583 3 583 1018 3 1017 2 0 -440 0 -440 -580 0
-580 0 0 -580 0 -580 -1165 0 -1165 0 0 -145 0 -145 1310 0 1310 0 0 580 0
580 580 0 580 0 0 730 0 730 -580 0 -580 0 0 1015 0 1015 3925 0 3925 0 0
-1015 0 -1015 -580 0 -580 0 0 -730 0 -730 145 0 145 0 0 585 0 585 435 0 435
0 0 -1020 0 -1020 -1160 0 -1160 0 0 -145 0 -145 1160 0 1160 0 0 -580 0 -580
145 0 145 0 0 3050 0 3050 -5380 0 -5380 0 0 -145z"/>
<path d="M11520 985 l0 -175 -112 0 -113 0 172 -172 173 -173 170 170 170 170
-112 5 -113 5 -3 173 -2 172 -115 0 -115 0 0 -175z"/>
</g>
</svg>
